<?xml version="1.0" encoding="UTF-8" standalone="no"?>
<!-- Created with Inkscape (http://www.inkscape.org/) -->

<svg
   xmlns:dc="http://purl.org/dc/elements/1.1/"
   xmlns:cc="http://creativecommons.org/ns#"
   xmlns:rdf="http://www.w3.org/1999/02/22-rdf-syntax-ns#"
   xmlns:svg="http://www.w3.org/2000/svg"
   xmlns="http://www.w3.org/2000/svg"
   xmlns:sodipodi="http://sodipodi.sourceforge.net/DTD/sodipodi-0.dtd"
   xmlns:inkscape="http://www.inkscape.org/namespaces/inkscape"
   width="744.09448819"
   height="1052.3622047"
   id="svg2"
   version="1.1"
   inkscape:version="0.48.2 r9819"
   sodipodi:docname="TabBarPull.svg"
   inkscape:export-filename="/Users/tomelliott/Code/ObjectiveC/i-heart-xkcd/Resources not in app bundle/TabBarPull.png"
   inkscape:export-xdpi="90"
   inkscape:export-ydpi="90">
  <defs
     id="defs4" />
  <sodipodi:namedview
     id="base"
     pagecolor="#ffffff"
     bordercolor="#666666"
     borderopacity="1.0"
     inkscape:pageopacity="0.0"
     inkscape:pageshadow="2"
     inkscape:zoom="5.638408"
     inkscape:cx="-4.2971403"
     inkscape:cy="39.272833"
     inkscape:document-units="px"
     inkscape:current-layer="layer1"
     showgrid="false"
     inkscape:window-width="1920"
     inkscape:window-height="1152"
     inkscape:window-x="0"
     inkscape:window-y="0"
     inkscape:window-maximized="1" />
  <metadata
     id="metadata7">
    <rdf:RDF>
      <cc:Work
         rdf:about="">
        <dc:format>image/svg+xml</dc:format>
        <dc:type
           rdf:resource="http://purl.org/dc/dcmitype/StillImage" />
        <dc:title />
      </cc:Work>
    </rdf:RDF>
  </metadata>
  <g
     inkscape:label="Layer 1"
     inkscape:groupmode="layer"
     id="layer1">
    <path
       style="fill:#000000;fill-opacity:1;stroke:#ffffff;stroke-width:2;stroke-miterlimit:4;stroke-opacity:1;stroke-dasharray:none"
       d="m 44,962.375 c -4.432,0 -8,3.568 -8,8 l 0,64 c 0,4.432 3.568,8 8,8 l 8,0 8,0 0,-8 0,-64 0,-8 -8,0 -8,0 z"
       id="rect3844"
       inkscape:connector-curvature="0" />
    <path
       sodipodi:type="arc"
       style="fill:#ffffff;fill-opacity:1"
       id="path3755"
       sodipodi:cx="40.883316"
       sodipodi:cy="185.03394"
       sodipodi:rx="10.534351"
       sodipodi:ry="10.534351"
       d="m 51.417667,185.03394 a 10.534351,10.534351 0 1 1 -21.068702,0 10.534351,10.534351 0 1 1 21.068702,0 z"
       transform="matrix(0.47463767,0,0,0.47463767,28.595238,929.53811)" />
    <path
       sodipodi:type="arc"
       style="fill:#ffffff;fill-opacity:1"
       id="path3812"
       sodipodi:cx="16.303162"
       sodipodi:cy="993.67078"
       sodipodi:rx="11.286805"
       sodipodi:ry="12.791712"
       d="m 27.589967,993.67078 a 11.286805,12.791712 0 1 1 -22.5736105,0 11.286805,12.791712 0 1 1 22.5736105,0 z"
       transform="matrix(0.44299516,0,0,0.3908781,40.777778,613.95804)" />
    <path
       sodipodi:type="arc"
       style="fill:#ffffff;fill-opacity:1"
       id="path3814"
       sodipodi:cx="-101.70665"
       sodipodi:cy="988.2782"
       sodipodi:rx="10.408942"
       sodipodi:ry="7.1483097"
       d="m -91.297708,988.2782 a 10.408942,7.1483097 0 1 1 -20.817882,0 10.408942,7.1483097 0 1 1 20.817882,0 z"
       transform="matrix(0.48035621,0,0,0.69946606,96.855421,296.09513)" />
    <rect
       style="fill:#000000;fill-opacity:1;stroke:#ffffff;stroke-width:0;stroke-miterlimit:4;stroke-opacity:1;stroke-dasharray:none"
       id="rect3845"
       width="2"
       height="78"
       x="58"
       y="963.36218" />
  </g>
</svg>
